<svg class="icon" viewBox="0 0 1233 1024" version="1.1" xmlns="http://www.w3.org/2000/svg"
     width="16" height="16">
    <path d="M751.533535 557.254529a37.297808 37.297808 0 1 1-37.210664-35.467776 37.297808 37.297808 0 0 1 37.210664 35.467776m258.470326 0a37.297808 37.297808 0 1 1-37.297809-37.297808 37.297808 37.297808 0 0 1 37.297809 37.297808"
          fill="#515151"></path>
    <path d="M934.449656 972.06193l-6.971553 1.481455q-9.760174 2.091466-19.520349 3.834355a302.739688 302.739688 0 0 1-67.275486 6.448686 389.971244 389.971244 0 0 1-368.882296-229.799815q-3.834354-9.934463-7.145842-20.043214l-2.091466-6.361542q-2.265755-7.058697-4.008643-14.378828a355.984923 355.984923 0 0 1-9.67303-79.562849c0-179.691778 164.964372-321.388592 372.280929-330.625899l9.324452-0.697155c8.278719-0.610011 13.594528-0.871444 19.694637-0.871445h25.097591a368.620863 368.620863 0 0 1 357.292089 340.29893 325.484379 325.484379 0 0 1-115.204912 233.547024l-7.407275 6.71012 10.457329 74.682761a51.676636 51.676636 0 0 1-72.591295 61.001088l-103.788995-48.80087-9.934463 2.440043z m231.281269-329.928744a301.519666 301.519666 0 0 0-293.240946-273.546309h-22.30897c-3.921499 0-8.10443 0-14.727406 0.610011l-11.241629 0.784299c-174.288824 7.842997-308.142641 123.04791-308.142641 263.611847a287.57656 287.57656 0 0 0 7.930142 63.963998c0.610011 2.614332 1.481455 5.92582 2.701476 9.67303l1.830033 5.228665c2.265755 6.884409 4.444365 13.245951 5.92582 16.731727a323.480058 323.480058 0 0 0 308.578363 187.186197 242.610043 242.610043 0 0 0 52.896658-5.402953q8.714441-1.568599 17.428883-3.398633l5.92582-1.307166c4.967231-1.132877 8.714441-2.091466 20.391792-5.054376a33.637743 33.637743 0 0 1 22.483259 2.265755l89.584455 42.177896-10.457329-72.765585a33.637743 33.637743 0 0 1 14.640261-32.853443c1.220022-0.871444 8.714441-7.232986 15.947427-13.681673a260.12607 260.12607 0 0 0 93.941677-184.48472zM0.261558 392.203012C0.261558 175.039138 203.74376 0.48888 451.756757 0.48888a452.018065 452.018065 0 0 1 453.760954 321.562881 49.498026 49.498026 0 0 1 0.522866 17.428882 33.637743 33.637743 0 0 1-66.665475-5.751531A386.834045 386.834045 0 0 0 451.931046 67.938655C239.037247 67.938655 67.624189 214.776989 67.624189 392.464446a308.665508 308.665508 0 0 0 142.916835 249.581596 33.637743 33.637743 0 0 1 12.025929 37.646386l-24.487579 73.549884 110.237681-51.415203a33.637743 33.637743 0 0 1 23.616135-1.830033l5.751532 1.830033a509.010511 509.010511 0 0 0 114.246324 15.250272 210.976622 210.976622 0 0 0 33.899176-4.182932 8.017286 8.017286 0 0 0-2.875765 1.655744 34.857765 34.857765 0 0 1 41.219307 1.132877 33.637743 33.637743 0 0 1 5.664386 47.232271 115.814924 115.814924 0 0 1-78.429971 21.350381 549.009796 549.009796 0 0 1-126.010819-16.296005l-130.716619 61.001089a52.286647 52.286647 0 0 1-72.417006-62.743977l28.23479-84.704368a367.923708 367.923708 0 0 1-150.759833-288.970871z"
          fill="#515151"></path>
    <path d="M348.664918 262.096405a46.62226 46.62226 0 1 1-46.622261-46.535116 46.62226 46.62226 0 0 1 46.622261 46.535116m306.835475 0a46.62226 46.62226 0 1 1-46.622261-46.535116 46.62226 46.62226 0 0 1 46.622261 46.535116"
          fill="#515151"></path>
</svg>