<?xml version="1.0" standalone="no"?><!DOCTYPE svg PUBLIC "-//W3C//DTD SVG 1.1//EN"
        "http://www.w3.org/Graphics/SVG/1.1/DTD/svg11.dtd">
<svg t="1721785038207" class="icon" viewBox="0 0 1280 1024" version="1.1" xmlns="http://www.w3.org/2000/svg"
     p-id="44641" width="20" height="16">
    <path d="M551.045 369.469c22.915 0 38.191-15.313 38.191-38.154 0-23.063-15.277-38.005-38.191-38.005-22.914 0-45.904 14.943-45.904 38.005 0 22.841 23.026 38.191 45.904 38.191zM337.507 293.308c-22.879 0-46.015 14.943-46.015 38.005 0 22.841 23.137 38.191 46.015 38.191 22.803 0 38.080-15.35 38.080-38.191 0-23.063-15.277-38.005-38.080-38.005zM1007.486 613.745c0-120.692-111.978-223.547-249.392-234.227 0.103-0.631 0.163-1.359 0.163-2.101 0-0.897-0.085-1.773-0.249-2.621-27.535-128.393-165.728-225.242-321.385-225.242-175.901 0-319.027 122.657-319.027 273.457 0 80.869 41.269 153.766 119.542 211.238l-27.29 82.055c-0.429 1.285-0.679 2.764-0.679 4.301 0 7.699 6.222 13.943 13.913 13.979 2.284-0.014 4.431-0.571 6.326-1.547l102.319-51.18 12.607 2.595c31.517 6.452 58.77 12.087 92.327 12.087 9.826 0 37.005-3.634 39.305-6.526 36.931 92.438 138.711 159.143 258.476 159.143 30.663 0 61.735-7.417 89.619-14.387l78.94 43.159c1.924 1.062 4.22 1.687 6.659 1.687 3.315 0 6.359-1.153 8.755-3.079 3.127-2.542 5.125-6.42 5.125-10.765 0-1.43-0.217-2.809-0.618-4.106l-20.107-66.94c67.595-53.394 104.674-117.317 104.674-180.945zM463.056 659.278c-8.751 0.741-17.575 1.113-26.363 1.113-29.626 0-54.692-5.117-83.65-11.123l-16.834-3.374c-0.822-0.187-1.767-0.293-2.737-0.293-2.14 0-4.16 0.519-5.938 1.44l-73.937 37.045 19.207-57.769c0.436-1.266 0.687-2.721 0.687-4.239 0-4.533-2.247-8.541-5.689-10.972-74.384-51.865-112.095-115.046-112.095-187.721 0-130.629 126.068-236.933 280.983-236.933 136.932 0 258.181 83.279 283.209 194.107-143.606 1.853-259.775 102.819-259.775 226.811 0 18.021 2.743 35.484 7.342 52.356-1.091-0.322-2.345-0.506-3.642-0.506-0.284 0-0.566 0.007-0.847 0.027zM871.294 770.662c-3.216 2.441-5.271 6.266-5.271 10.572 0 1.361 0.204 2.673 0.586 3.908l12.508 41.472-51.354-28.069c-1.831-1.022-4.015-1.625-6.343-1.625-1.145 0-2.257 0.146-3.316 0.42-27.42 6.951-55.897 14.107-83.668 14.107-128.812 0-233.597-88.507-233.597-197.334s104.748-197.334 233.597-197.334c126.401 0 233.189 90.361 233.189 197.334 0 54.245-34.223 109.865-96.331 156.548zM650.305 514.522c-15.277 0-30.551 15.388-30.551 30.627 0 15.35 15.277 30.516 30.551 30.516 22.914 0 38.080-15.166 38.080-30.516 0-15.277-15.166-30.627-38.080-30.627zM818.013 514.522c-15.017 0-30.293 15.388-30.293 30.627 0 15.35 15.277 30.516 30.293 30.516 22.879 0 38.303-15.166 38.303-30.516 0-15.277-15.388-30.627-38.303-30.627z"
          fill="#11CD6E" p-id="44642"></path>
</svg>